# xmcd
#
# Track frame offsets:
#	150
#	15267
#	35087
#	57375
#	74779
#	97030
#	120221
#	137816
#	159697
#	176900
#	200730
#	217329
#	235073
#	249798
#	264213
#
# Disc length: 3713 seconds
# Revision: 2
# Processed by: cddbd v1.5.2PL0 Copyright (c) Steve Scherf et al.
# Submitted via: dBpowerAMP V12.0
#
DISCID=dd0e7f0f
DTITLE=Eddie C. Campbell - Spider Eating Preacher
DYEAR=2012
DGENRE=Blues
TTITLE0=I Do
TTITLE1=Spider Eating Preacher
TTITLE2=Call My Mama
TTITLE3=Cut You A-Loose
TTITLE4=Soup Bone (Reheated)
TTITLE5=I Don't Understand This Woman
TTITLE6=Boomerang
TTITLE7=Starlight
TTITLE8=Skin Tight
TTITLE9=All My Life
TTITLE10=My Friend [For Jim O'Neal]
TTITLE11=Downtown
TTITLE12=Brownout
TTITLE13=Been Gone A Long Time
TTITLE14=Playing Around These Blues
EXTD=
EXTT0=
EXTT1=
EXTT2=
EXTT3=
EXTT4=
EXTT5=
EXTT6=
EXTT7=
EXTT8=
EXTT9=
EXTT10=
EXTT11=
EXTT12=
EXTT13=
EXTT14=
PLAYORDER=
